<mxfile host="app.diagrams.net" modified="2023-06-24T22:16:32.080Z" agent="Mozilla/5.0 (Windows NT 10.0; Win64; x64) AppleWebKit/537.36 (KHTML, like Gecko) Chrome/114.0.0.0 Safari/537.36" etag="oPjR-XcuORMQKGtJbTfT" version="21.5.0" type="google">
  <diagram name="Страница 1" id="2tFeMIWzkHVghGP4apG4">
    <mxGraphModel grid="1" page="1" gridSize="10" guides="1" tooltips="1" connect="1" arrows="1" fold="1" pageScale="1" pageWidth="827" pageHeight="1169" math="0" shadow="0">
      <root>
        <mxCell id="0" />
        <mxCell id="1" parent="0" />
        <mxCell id="yebw_X8hMPpWs7V2vMcK-21" value="" style="group" connectable="0" vertex="1" parent="1">
          <mxGeometry x="54" y="509" width="60" height="60" as="geometry" />
        </mxCell>
        <mxCell id="yebw_X8hMPpWs7V2vMcK-29" style="edgeStyle=orthogonalEdgeStyle;rounded=0;orthogonalLoop=1;jettySize=auto;html=1;exitX=1;exitY=0.5;exitDx=0;exitDy=0;dashed=1;" edge="1" parent="yebw_X8hMPpWs7V2vMcK-21" source="yebw_X8hMPpWs7V2vMcK-2">
          <mxGeometry relative="1" as="geometry">
            <mxPoint x="80" y="30.14285714285711" as="targetPoint" />
          </mxGeometry>
        </mxCell>
        <mxCell id="yebw_X8hMPpWs7V2vMcK-2" value="" style="ellipse;whiteSpace=wrap;html=1;aspect=fixed;" vertex="1" parent="yebw_X8hMPpWs7V2vMcK-21">
          <mxGeometry width="60" height="60" as="geometry" />
        </mxCell>
        <mxCell id="yebw_X8hMPpWs7V2vMcK-10" value="" style="shape=image;verticalLabelPosition=bottom;labelBackgroundColor=default;verticalAlign=top;aspect=fixed;imageAspect=0;image=data:image/png,iVBORw0KGgoAAAANSUhEUgAAAGAAAAAwCAYAAADuFn/PAAAACXBIWXMAAA7EAAAOxAGVKw4bAAAGtUlEQVR42u1ca2xURRQeFoqUgoiKUHkaE6VGUcRFkB8aIAZF8EHAJj5Q8BGjjQEkoiSIIviAYlAQghgxVauiAbWUAAKiCBQKtaFYfFSNFgQBDSDKo4jnZL8N09O5e2fuhS1s9yRfoDtzzs58Z2bumTNzV6lgcg7hYUIhoYSwlbCa8BqhH6GRhY1zCY8RFhG+IawjLCBMJlyr0mKUTBB0kHCc8DdhA7APnzE2Eq5KYIed9xfq7iSsIZQR/tRsfEm4JE35CelE2ARyeLTfQsjQypsTJhCOac7pJ2xECLNRXkq4QcwW/n8PwkrU2ZN2QkyYlF0gdYTPEjNNG8X74DhZVkBoYtDtgJF/XMOihk5+Z8LvhL2E3pZr+2GNwCJ8fjv+XoaZIKUF4RdBPuOA5TMlJYWXlS2EI4Q+DnprNQL/w/PgN8yIth46owzkMw41ZAfkg4RRjnrvCxJ34N+nE+jM93DA0oZKfpRQg4dlxFG3wEDkP4TWCXSeNejwzLuioTpgOUjoG0B3mYHMdy2eHaVa/V8JNzVU8ntr4WYQqTY4INdCrxFGfDdC44Yc+bwF0oYH0L3QQD7vDc5LR/N2EkG0cgChoavcaXDA5jSt9tISaYL8gPozDQ7Ir8f+3INUSTlh8JnihKYhdMsNDhhYT/24T7Rjv0ifpJy01nJBcRwlnF1P7SkRbeEdemYqO+BWw+hfW4/tWS/a8naqPz+mGxzwfD22pxfhWxVLJM4gZKW6AzYbHNAvHdckR1ohdSETaZlpapIjgwyjf1WaluTJNIMDJqRpSZ6UGhxwfZqW+lv/OZXcPE1NcmSgYfSvC2jrMsISQpeA+pz06xRyNx+3w4lFl9M4Djj4XLsjoVkyHfCywQFTA9qaB/0ejnqDRRqEr84UgETXwVSp2dmN/U0rj/rtVewwqVysApwB4FskeclIf2wyOOC2AHZ4yeJM7HZlfx7A2dtZ+M4N6PDjCIH5s2qMSBsZChL5nhLfXZqt9ed7QrZWl2fGOBU76ePvWkgYo2Ip/HGoH9ctVacwHX+Rih28Swe0C2DrXui+4KAzFTrPieWiWGtLoYWdNip282OlGLGrVN0rMi1BOH/2BuECgz3edf+k6S626QyPutEY0Tswhf08N8ZA/p4A5DfG1Oelo62lTn84f46h7GNV+zzab0ZNhK0c8Xm+qn3D41I4iZeYB31sPiF46e5HQLGBzPd8vmSdQWdLAAeMgO6LDg6rULHrLqaDowpBXKI8UFPki1YYyuaIvvGo5ozvEMvnkq47xmb6S1Qn0ImijgxByxzJb49ZU6XsE2bD8F15hrJssSxW+ti6GfVGGMo+N3AyybKNdwi96Ykqf+ThgDUJdIrR0btFh6sdyM/AyONR5ZK4W47lyjT680QfXvWxNRf1Ohhm2X4DH7YBwlihOzlR5aUeDhjmUT9+9vsm/l4i9DpZLiOFqD/agfwsRB4feJTLU7moj71tynxufbWqe7jUzaGdc4X+SJdYvgaRhUmuUbFD+x9V7D5PfAN1SNP3W8tZr8hyhJrW7Hloh5Seoh9bLexNwnLhF2AUOrZzm9C/MlHljgjDuOLPHqMmgmcFk88XdruK8lx14kjyiMfs4VvR9+PhWYNI4WSKHHVh7Mug5C4H3c5C9w9lccMwCvLjV8s/wUh+CpudH1DGYerFHjYGqNhLF/Ev/gIz6RmEtbu1aOLGk0x+lqr9osjRgPuR+LNpv1gRznfQHykcUOCSz3gEG5C9IpTbiNjXb2vdAtO3FCTo8fgKzIBTkSuRnV4YwtZ1KtzdpsUhZk+d9EAXFfxkqxmmY3YSciJrRafD3AMaL2zNcNBtgyU4rvtvglxSykiOIGxnSIfLC8ZDHXQfDfnwPiPlFdHpl0LYykCgodtzyap+JXQHpTr5Z2EnrXc6x1BvOHJcfhfFeglblQ5t6Sw2pbs9ZuJ4R7unteQKwr72qBdPMvodsjwp7M1yaIuNbgRheEmqOOAz0ekHDHW6o2xOgPh/iENbyoSu6cXGvsr/la0zSvT1+qDHEvM6lga/VEITsZdwebchW5Bf5THbihCSt00F8psr/7NozuHzxdwPLexFQ8T/XS2in/4q3JHtaSnbtU6/Y3AQbwj5ZxBsEoTydVkXorJEPmyKKG+Htb8q1fYFE7VOrxYRyRpsimw3ZQuEAwY4tmW+R/qBE3HfYXmLqhQTzo5+qnV8OXAYI99lR6z/VMIu5X6jmn9JZr2WvimGzWMY/T1TdS8QQTjKCcQKPAumKPfbCH2gy+cbl4fYyD2E2VSOWTlWGS6q/Q9cw8wKfQV4ZAAAAABJRU5ErkJggg==;" vertex="1" parent="yebw_X8hMPpWs7V2vMcK-21">
          <mxGeometry x="15" y="22.5" width="30" height="15" as="geometry" />
        </mxCell>
        <mxCell id="yebw_X8hMPpWs7V2vMcK-22" value="" style="group" connectable="0" vertex="1" parent="1">
          <mxGeometry x="164" y="509" width="140" height="60" as="geometry" />
        </mxCell>
        <mxCell id="yebw_X8hMPpWs7V2vMcK-3" value="" style="rounded=0;whiteSpace=wrap;html=1;" vertex="1" parent="yebw_X8hMPpWs7V2vMcK-22">
          <mxGeometry width="140" height="60" as="geometry" />
        </mxCell>
        <mxCell id="yebw_X8hMPpWs7V2vMcK-11" value="" style="shape=image;verticalLabelPosition=bottom;labelBackgroundColor=default;verticalAlign=top;aspect=fixed;imageAspect=0;image=data:image/png,iVBORw0KGgoAAAANSUhEUgAAAc4AAABFCAYAAADD5gYfAAAACXBIWXMAAA7EAAAOxAGVKw4bAAAT/ElEQVR42u1dC7RW0xaeJxIlogdSiZC4er8PQnoQVxFCunVHyiNKnUqkdxLlklGivCWV10FJD71ooOLSRaSUUNdFUVLIvWvac99/n91a69/vf+/9z2+MOc44/36steeee8211nwBMBgMBoMRf5wpaKugHYLqMDsYDAaDwVDjMEFfCfovUZ+0PNiJgoYLussF3SHoqBjOasa4eIbRgnqyXDOyoIA+dlNuhgkaTDRQUK8sdDOdO5rks4HHfvSwfX9mH/pp2r6BzhkraICgUvw6GRFjokVpIo1Py4O9YHswpzQuRs/QStDvHp7hV0EHsGwzNGjo8ftQ0f0e+nBSQG1X5tfJiBCn0hhrlcEn0/JwuOp6VdCbglYL+kzQbgcf4asx6f8hgj4X9FuW/uL++gZB7wt6S9ACmoUzGDpUETRL0FJBa0iGdnlQWiij8wXV99CHIwS9KGibyzbxm9gsaLmgEfwqGRFjsUQmF6X5gUsLuszysB9KGPBxTPqKW1c7Bc1TDB7FNPNhMILCgYLOF/S1gx2N+wRVD6hd3GrtLWifps31YJheCuk7ZjBygS4K+fwo7Q9enh70J0FDJQzAVWlBjvtYj2bVfQWtk/QRZ9sHsQwzQkLbLIqzc0jtzpW0tVbQBTH4JhmMsjT2yr6JH9L+8M3pQfEjvULBhGNy2D+cfa8UtEpQNUX/JrAMM0LGaoXsoc39uJDafN22qh1Cq2AGIw64O8uE8pA0P3w/eshBghorGFCYw/7dTKtNtBldqehfa5ZhRsjophkgwvAgPFbQL3T/bwW15FfAiBFOEbQ3i+KsmWYGFNNDNhV0pIIBXXPUN7QZ/WQZmB6S9G0vbRkwGGGiDKiddr4PWAbR7LCE7r0JjFAyBiNOeI3k81GN4myR1ofHbdAfSDmZW0DbJQwYlqP+vUQDRzn6/1NJ35axDDMiwijNINEroDYwbGoW3fNLQbWY7YyYobNFPjHxgSpE8JK0MsCMXZtr+W2NhAGP5aBvprdvB/r/GMXLGclyzIgIVWH/eDWrR7pfoMPPNMugdAKznBEz4M7KFySjnei3bxTfxI1pZUJ/esCBlt/mSBiwNOJ+membnrb8dpXi5ZzDssyIEDM1q06/smg6W6BN8xRmNSOGuJNkdIHlN5Xj3Ji0MuFlesAmlt/GSxjwZcT9mgqG3aiK5TeZfXMPpNxzixE7tNQozhd83Pc2yCTwaMhsZsQQJ9KYi34ltSV6xE6PpJEJaEtBe6bVvonoLWEABmKXiahfzai9HrbfP43BSpjBQLwL6tCU4z3c7zq6/mcwcjEzGHGEGVc8VrLQkX0P89LIhEYgT6nXRsGEkyPoE3oT/osUojXAW2XfHMGyzMgBdKEpd7u8VxeaKOIsvh2zlhFTdILM7mM527Hhim/h/TQyYgDsb99E1FIwIYqPehhtBdjtO2zfZMQJutCU7ZKBRYU2JO+4Ur2C2cqIKdActpHk+1LJ8WsV38K2NDLjFdjfvonAbVtZIvXrQ+4Prmgx4Pt2ybGHge2bjHhhtGbV2dvB9Rjjhknk/6CBh7E/0KZWGJO+YHnF1pCfmZvMMKyFiuMXKr6DfWnjl2nf/BHk5bY2gv8tKDfAbVnMsI/btLKcs58B2zcZ8YIuNOUj0OeSrQtG/LRsx4dhADOFmZlpHoDc1hhFu/MO6svUPHsPtWhBg+9C5emtK8lXNU3MMFPrqUqGLZQwYE6I/elJsxPZ7JLtm4y44lnNgHGuZhW1FVLurh8A7OaZaTlSnmdDyfJyy/PsPZg7k7q6zEdrvoNGaWJGET1UkeK4LPRjTYhbIDj7nqw4fjWwfZMRTxRqBowXJedj/lkzeHwKs0+L0jSxt/J0esTK0640d9Nv+YKL6Lm3CDpUc14pze7LhWliiCmQjRXHbwV5gegwgAHlmHmiguI42zcZccYqUNt3rJl/KoFR2xaPzYDcbj0mBWUkyvPRiHh3Bhj1f61K87w8471pIrvMwflbFN9Bauz3pn1zB8jtmwAli1tb6YiA+9Iesuc0lNk3l/CYwogJumtWnffQOZgJy8yu8gpw4Wk3wAnygoiVp2yleV6e8d0MMVnk8Px3FN/AsLQwpInlA1ahkYIJQWY0wZyHG6Bknlw72L7JSMLMXBeagivNpfT/W+A8VIWhX3k+o5n480rTH2qAkYwDHYLqOLzmRcU38GBamDIQ9PZNRAUIv9L9RDCyFlXXnKOyb57NYwkjRhijWXV+SX9X0cqT4X3laXdanBmw8mSlaeAlcF9ndrJC/l9KC1PMtEmNs5z3g4QJQbnO1wMjVvSmLOdNA7ZvMuIPXWgKEpobjmI2BaI8F0mUZxCxgqw0DbSl59/qcqI3VCH776SBKShgGLu5w8FMTZbxPghPwAPo3u866MN6YPsmIxmYpVGcf2X2BIayEuX5rE/lyUrTAMbQryMeuM1k9XfNjkvi0RSy2zdNzJYwYX4AfSii1WYDB7N4tm8ykoIzNIpzNrMncOW5OCDlyUozg9shE6ta4PLa9grZx52YxHuQD6KHGeDg3HEg33Lyg+NISMc5OLcr5K99E1cvezUDcVJoMxip5fIFqtAUnChWY30XuvKc5VJ5stLMAH1NdpGsnu7h+rqacaBS0pkzD5xnc+glYQAO5n6M8bjSxQBwJ56F+WrfrJAChWml+/Jo8PmHhg+cJSgc5fmGR+XJSrMknoeSIVRuUVkj+6cnmTFu7JtAQiRjQnWP7ZsptNo4PD+f7Zt3gWFr+A8YTlpJJLRtrADDESwfgFUjftcMHt8KOph1XSTKc3YW5clKUz7Wo0PQ4R7vUUALG5nst00yc5rRQ7zs8PwTFExo5aHtI8GIdXvC4fkq++ZwHicYMUQHMGw5WOnkPY3y7MasCk15LnGoPFlplgQ6BH1CvLjS5702KeT+b0lm0GBwbt80V6gyF/vuHtrGHJPfCari8PyuASptBiNMtIRMlhn8tk4CI92eTH7XMLtCQzmJ8pxjU56sNPeHmV51Bbh3CLJjpULuhySZQa+B+2z1n0uYMNJlu2fRTNzNrENm38TSNmFsdaHDUh9B10B+1tpjeAduQ28n+bTWkX1ds+psHqP+NyNln5aCCSrlWZqVphTViCfoEFQ3gPs9p5D5SSE+Q/MwZRgVAmbpcWrfNLFAwoSnXFyPqbI+JmF2M5uRKew3QuBLayiZk3IqMBjOgCtLM9We3QHqQo3inBGT/g+jCa3Zr0tS8l7KC3rTxvOFwLlnZTBjj+8N6H6TFDI/J6ky3Bzc2TdNTJUw4S0X12PlcDQY13Y5C4rKvmlPIP8pf0sMB0AHuU0kM49JJoUFJEuquLZjc9z/E2wDjlksOi3AlecyBf9ZaRo4FzJVfDC2vlcAVKzg+YqkyrC5j93f5XWDJEz4xuG1tUlput3fvgaisW/i9o3dC/IJ/p4YWYB2ejO7ynOaHZxbNKvOXDu5yYLVr07Ze8J0cWttz/gHPXu+A3cgP4ToQtI2JFWG54O36iadJZ1D4Sub5bpSNMtYC+5LKE2H6OybMy1toDdkZf6mGBocDhmvWbRjHqQ5F+NxdyoGkm+yXBuFUtkIJQtEF6TsXZ0P8vCI54DLuhVBpnrPhgDpa4W8/xySDH8Rpgx7tW8CKVoZI07Nct31tAXQ0kN/o7JvmgoetyzOAnYMYuhRliaDpjw6mchN0czCr8zx8+DAc5Ggv6TwXamUJitPgKNJF+D43DTge+uyBx0eogyfFgajWlDHiz3OsGVM6JDlxeBMxst+c5T2TQbDKdDJzXSUw2oP5R1edyrsb4cxaSWzNRTgFt4vFj7voMnxMlaef2IGBFeww46qGsV5StIYNQS82TdNfC9hgq4cGAokbkVV8NCWyr55Fo8HjBwBd2nMggfoTFbF5fWLNINJE2Zv6EqzGR0rx8rzz5AcnMhhTH3FEO6Pu3aq7FmJC3kyY8oaerxelrha5b58AR3v6LGtKO2bDEY2FFhkcgsYMb9ucbFGcT7OLA4M7TRKE1h5/qnUPqBn7hFiOyo751VJY5ZX+6aJZ8FZVW/cvsL8pC/46O8GSVuL83AQOJRW2eclnE5O+HuYQDKIOYPreLxHKYVcm0ULuMB1NEoz35VnP8iEE4bpCPa2QtYHJIlZLcG7fdPEnRImfCA5D4NfMYm81/JJ1RUMH5ZngwBOdjZBOiqj4LZQ14S+hxGQ8Qhs6fNeRRoe3cZ6zxfaulCa+ao8cXKGfie4jVo/5LbmKOR8QpIYdht1+hYf97hWwoSdtnOa0Eu50Uc73YDtm+bK/TdIT1mxCQl8B30gU0avXQD3Q3v/LgV/vgYOj4hSaeaj8nySnu/+CNpSldabkSSGmZ6ADXzc41wFIypbVkgY24behn5qdT4C4do3MVvLRDC8GbGvjws6M6bvDW3FD4LhlJJUehqMvMZHJGyQQQe1fUSXB3jfhzWTi84hPxNmDsNUmeivgOnosOZizYQrgzY+lGY+Kc9C2vnZBt4cNt2iv0LG/YYUtohKhkvTLHe7T4VWU8EIU0iH0ArJ7xZAmPbNnmBsueFKeS6UdHi6kyfuDMLFltX+zQHf+zRQh6YsC+l5cFI7ndpF56bn6e9/aWzokGCludun0swH5Ynj/j/pma6JqM0uChn/2IceeyRKGS4EtSOPW+bvlTCiCylV7PxYn22Ead+8npiODK9oeRnfWdrpxDoj74HOTHsgXLv6Es2qM+iC3wUk8/tocnugZfVptomOg0fnsdK0Ks+lKVSeN1kmZlFlhlLtUG73cK9SChluEaYMDwX/9k0T60Hu1LCQjh3i8/5hxW82IqVfTC/BCmsey/msN/IaZ0EmPd6UENu5RKM4pwXc1gDFytkepN4/Ye9pV8BKM63Ksyopqz/AXSnJIHZWVDJe1uW9inIhw++Af/umifkSJnxFL6V1APeX2TdxVlnG54wbt2T/DfsH++Ixa2KH9aw78hatLIPxTMkEK0jg7s0XoK7aEVRQejW63zzJsSa2diez0kyd8kQZNuP3n4m47UoaxVnLxX2q50KGG1huemgA91Pl3Hw8oP5uhODtm+bsvp/kWD1bW/NYf+QlsJqC6WCCMhhFoo3BmoFlYEBtTKVJrSwP7UBbm/0S8J7OhJIJ88NQmmlSnqMsfW+RA6WtigoodHGfh6KWYey41dhdNYB7yuLQvqXZhV/UUTB5hM/7ouL9iT4EO4ba2hoCjHxCOclkcFREbWPKvr2gDk3xq7wPo5XZa4rjdkeYRjF/V1EqzTQoT3s5uwo56MM2hXx3cXg95kj/WSPDy4OWYbQ1PmW7aVEAjJDZZoLy0hqlYLKf2moVaNbzpOQYbtNaK7DgrOZ41iV5AdwqxXhh2XbpuIj60BD0cbr9A/pWZd/nyVDSszfuhdvPpgHUqjSbRtQ2TkBW2t4NBvfHtYoSKvvJoI5+iAo1wHDm8bMYujQqGa5FMw3ZgPArrbBq+Lh/fds9FwTAYDQUY9VwVfmfST5m3zUFbQa5c1FrWztLWJ+kGmgnx+TW6Pm9RaOwfoRw43pxMjeIdkF0CSPQroO5RL3W67yKBhOZiWY8JCdrUW0br6JUmjrlGTebMI7ruHX5lUKeUBYaRNAPHKsxR/lnGtnGPjopAXa1Robv9iPD6NCA8YiY+u57cJ7FBe04mKsQszi4Kdpc3qLld4M7I+/pYATDL6RtoveoH06y46DSx0rl79L1GFrjNxPNTFsb3Vi3pAoH06RrMX3Ee8BdisCPwNjGDcJ9H5NuYK5njGH7HdxlXPqFBo9VJPvo5HGij76Utm2hYX+qxfg9WjOJbc+B0lQpz7dzzBfcxkQP7OUaZSmjz2n8DGprHleD8+g7Wwfusp3hBHY1Xfs8OI/88C3DxeA/FZrbJfwGj1tJUyDYFG64dePV87EilMw2shOCcZ5ixAetApCxPQFtyfUPWPY7+uiL3dwyN+bvsSxNcjFLTN0c9+UwUlZrwIj3zSUu9SlDPQPqx+YA5XqNx2d3LcPtSSHhsvUuIlyyDibCoP9eFuor6FY6bxIt7d3OqDFZ900elFZzanM8bZcNphlGLwfUj84fS33HNHR+khX0szH+YdYzqUMF2pVAeRtOsm6XqyLLtzLS8g1hubyp9IEGtd2IuTvvoftjewMcyP11dO4ddN399CwH+ejLPIg2zR8jHFQk2b7XIremLPensdX8f4zlnCn0f7mA+tFd0AN07xHUXh+JLPe19OdWS39Mucat70KW4XhjrY3xLZgljDxAdSi5VYxZs8owWxgsw4xsaGFTmusgujRUDEYuMdwm+/cxSxgJwwiW4dzAnp1oILOEkQdA08omm+zXZ7YwEi7D9Zgt4QO9gq1B1OgBJksM3BuiqVnHYESFdrYBZ7XiPHR+YQ9zBssw4/+wF+MulpyDrs5bgeM6GenCHJvsy4rNNwLOoMVIjgzfIDmnMctw8FhhY/zFknM6QnCZlhiMOAA9jK3p/TAUS1ZY3AwZq8ssYyRUhh9kGQ4WuE1rTQG1DeQ5J1+ll1KZWcZICTrZJowzJedgvCRm5VnJ7GLEEPb442dYhqNBHQeDByaDwKwxE5ldjBShr032e0jOMQsetGd2MRIgw91ZhqPBkbYV50jbccwchCnRsDJFRWYXI0W43DbonGE7jjlMcZelmFnFSIgMF7IMRwdrxol7Lb+jZy2m9MI99HOYTYyUAfOaWnNZW2fkmNELi7xjYYhKzCoGyzDDjpqQqYyBFRcwZdV0MPbFsXbh+cwiRkrRETLOFZ8IGk2zc8zCgknkj2MWMRIsw5jIpgazKDxgAWHMG4qVWbDqClYWwLykVZk1jJQDt7Nm0+z8Vxp8sMTZwcwaRhpl+H+8FDyQkL7sVwAAAABJRU5ErkJggg==;" vertex="1" parent="yebw_X8hMPpWs7V2vMcK-22">
          <mxGeometry x="13.090000000000003" y="21.5" width="113.82" height="17" as="geometry" />
        </mxCell>
        <mxCell id="yebw_X8hMPpWs7V2vMcK-23" value="" style="group" connectable="0" vertex="1" parent="1">
          <mxGeometry x="344" y="509" width="140" height="60" as="geometry" />
        </mxCell>
        <mxCell id="yebw_X8hMPpWs7V2vMcK-4" value="" style="rounded=0;whiteSpace=wrap;html=1;" vertex="1" parent="yebw_X8hMPpWs7V2vMcK-23">
          <mxGeometry width="140" height="60" as="geometry" />
        </mxCell>
        <mxCell id="yebw_X8hMPpWs7V2vMcK-12" value="" style="shape=image;verticalLabelPosition=bottom;labelBackgroundColor=default;verticalAlign=top;aspect=fixed;imageAspect=0;image=data:image/png,iVBORw0KGgoAAAANSUhEUgAAAaMAAABFCAYAAADn/4nfAAAACXBIWXMAAA7EAAAOxAGVKw4bAAATkElEQVR42u1dC/hVUxZf6p8KRaWQDCk0TPSSyKOSMJWUXpQQyiMjr2oQRSEmJT2UyDcMEaUiU9JjKK88RkWFijEeE82kkGLM/jn7TOe//+vce9733nPX7/vW1797ztn77H3W3mvvtdZeiyh57Kuoh6K7Fc1VtFzRCkVLFD2j6F5F5yqq7qPM0YquIoFAIBAIMqCCol6KFin6WdEvHuhHRTMUNcxS9mB9/y3SzYKAOFDRoT6odp62o6bPdtSUT596VFTUQlFnRf0U3aRojKJHFS1Q9J6iL/W8fH+aO6KcoosVbTAEzTe6M25Q1EfReXpnM1zRLEVbHPeik0YqKmHKP0PRT/q+VsJ3ggC4x+PiyKTBedaOCQHbcb6wQGqxm6L1PnhhXFo7ogFZKji7of9V9LSidnqnlAkQPL8nS31nPz/beK6eos362nZFlYT3BAHwTMBJfH4etaF7wDZgIddSWCC1qKzoex/80DONnQCV3FZHI19TdEJAyX6Fop26nKn697309tIuf6nwnSAgsMA5SNHRipoqaqt383Md/PUtM3A/zpP3r6boC0WrM0wyzyu6XFF7RafodmIxt498/tSjit4YNFN0GlnaqC9c+OSAtDX+Zr0Lshs4lngVmx90ULRDlwfV3FNGJ94uPCeIGLs7+GsSM3B3RsDXUWCKoq8VjXCZYG6TTykwMIjhkw/S1sjbqLStp2+EZQ/V5X7HdGRb4S9BxNhf89ZHWn3BTfR1c/yOJ+uF34WKZhLvBLS3fEqBAW5xNSlNDRxgNO6aiMvHKvQ9phOxY9pT+EsQMc6iXarh5i7CqE0O36+iXs2+RJaj0NfM+y2Qzyhg8DrDKz3S0riTaJcaDTQhpnouZTpxufCWIAaM1vzVm6yzcZwwuiSH7zeMLMcd2AOOcXm/QfIZBQb2NOZq27ls/zQ0Ds4ETvfBT2PcqaDcbUZH3in8JYgBb2n++o3+/xZmsh+Zo3c7QtEPZJ0ZAQa6CKPm8hkFBk5l+OT9tDRulNGw7jHXt8So70zhL0HEgJcZ3J4/dPz2DjOIH8/Bu8HDFIfHV5LlZAHMYt4NHoAl8imz4iK9qCgWz8LhDK9MTEPDcHLd6ce+Xg+WpIQfPJqqyngSRIxOmr8edPzGnUd6LQfv1p8s5yD7fJCbveh5+YxZ8TtHfw0tkjYvZXilexoadgcl72Ldz1HfGzKeBDHgXtplL7LBRWr4KuH3gl4fB73HO35rRGIvCoqOjv6aVgTtRWCAH6isvWi/Qm9YebJiGjkb1jiBers56vuTjCdBDHibStuLgMtdJv0qCb4Xztd9TqVVSmIvCo6zHf315yJobxuGT1anoWEtqewhwAoJ1Hu6o86OMp4EEQPR4qEGW5eB75zUMKH3OlPX18X4XexFIoy8grMXTUhDw240GrUpYQbChFFNxpMgJv6aYvx+mIsw6pTAO8GLFPbY54zfxV4kwsgPOHtRtzQ0bLrRqG0J1dtX1/eOjCVBDBij+auX8Tt2/T8xg3lgAu80Vu926hi/u9mLbpDPKMLIQGrtRcASZhAkEXrkBl3XfTKWBDHAduE+kLm2keH5uPmwmRaCA5hrbvaiY+UzijAywNmLVqWlcW8wjTsrgXrvS1A9IiguuNmLbLzE8PzcGN8Hdh8cvkX4lvLM9WdJ7EUijLyBsxeNT0vjFjCNezKhTkXwysoylgQRozPx9iIbDya8uoR7NhyDGjHX3OxFz8lnFGHEgLMXdU1L4x5lGgcdZAvhcUGBYizx9iIbNzI8j0PfcRz0PpgsO+wdLtcbk9iLRBh5g5u9qFZaGjjAZTB8QilM0iQoCrxL7vYioIcLz8cRZBI7nA3kHufxGhJ7kQgjb2jtcUdfk6xkpog2AjMMMm3PISs10JH53MAG5J5ZEsFS2wivCwoI2exFpCd6jt9PiPhdeutyT8twD2cvQjDX8vIpRRgZGEaZ7UWISj/BsXtCZBFkQ0DKnu2OZ15QdEi+NnIRZc6p/opewR0mfC/Ic3TRPDs5wz01XPi8V8RCEZPBIxnuEXuRCCM/WELu9iIcpt6kF2LTmYUVXL8fcjy3lazI33mHk3QjfvFAWHEi5heyslaUcSDIM9hemudlue/fDG9HGWRzmhY0NTPc42Yvul4+owgjA5nsRSP135ibW2YpxymQvtNzf94OYj+Exswny9jaRK/0BIJcws4ifGCW+95m+PnhiN7hFD059Mlyn5u9qJl8RhFGBjh70WrNs/h7IXnLfFDVWIjBN6BKvjUWOupZAQSSkxBwFW6z7WXXJMgBaugd/loP9z7N8O/iCN7BTiOOsrJ5581m3uE/JPYiEUZlMYzhFTuSCALv+oknOt4oJy8DVeOQ3Ri9qvslJP1Tqxt2L6JBAZsavBMHFzj1p8J0Fz2HstuLbIwi3oM0LKAygZt4/Sz3QYuwmZI9fCvCqHCx2GWenR9gju3ILID2yteGQ4/4agQCyXZ+qFUEAwI63W8j6rN8oLcK8BuMI2/2IuAyps0/h9zRI8nbDkVDPNzbhMReJMLI+9zyA8MryGAcJLPtIUxZl+R7JzQlK1LCcuKDS3qlv1P6I3NXTJkwWluA32AlebMXAe1c2h3UYxQ7nWVk2ay8qEyuJbEXiTDyhlbEByYIehShElPeE4XUITi0Bw+6u8g6ROV3cptH6XdwOELR1SlQ0yEBXe0C63s/9iLSajSOT9sFrH+Arv94j/eLvUiEkVfcyvDK9BDllaeypphPC7mDsNW7lKxTvls8CqTeMm4EMaErebcXAbCP7mR49LIAdSNSCTyUxvnYRYm9SISRVyyOeC6t7TI/75GGzqqgV5RghO0ZhNFHlEwWWUHx4X7NY+f6eGY9w6OjAtQ9k6w04l5Tr7jZi66TzyjCyADU/98zvHJgiDKbufBfnbQxBtQfSzMIpCgyElbXK2Ac8oI7ek0Zj0WPVZq//KgXFzL8OcNnve31c2f7eMbNXtQ0hn5B6KMFeqwME2FUcDiZorfnnuXCf0f7LKec5mXYSZEe5fh87EBI8zkuDZ4SsmzoO5cZZY6RubiogcUIdOBrfD43heHPFT6exwHCf5B1ZskPkrIXIe7kNqOeljn8TvD8qhYD9aLS6W+qxUS5sOfdwvDKAyHLvN5lbm7gsxzTlvVBvk4QGKhfMg1eE7LcJjEIOEFho1vAQTqE4aXNPp7H4cEtPlUm5Ym3F82JoV9GUnQOGmGACC3fUeF7mMKjeH7CQolLBNk9ZJlPurTPr9OSOb/ntRPEdUyDt4YssxHDIC1JUMywT5Sf6/O57i6D0svZjeaa967wWWdTSs5eNILKxpXMhZH6HUrPkQfQEQn12+6MEIcGYL+Q5W5k2vRjACH7uVHGsHyeJOoQH80hbKggrPgQhBLnlzrKXFz0WB1wZedmyG2c5bkSPcG+Rv6PK1xHydmLkFJggd6JYedVN0ffB/mjkGPqM/0uUdNWY1KNo45/kWWrmZDgzugkhk9Whiyzlgv/vR+grA5k5eqCqnqon34BI8Jge1TCjPgRpdSFUJAXqEXB7EVAdZeBeU6W524iyy38mAB1crZUOV8UDml1YBjK8MqkkGW2d+H5x5JsmK0fT3onsZTZDgoEUcFWtQU16nKpJDKl/EaEBrja3h6grvIu9c2RzyjCiAFnLwqbc2uMizDql4uGJb1VN41l62TsCCLEBM1XPQM+/xYzMCe63Iso3C9qHq4UoC43e9G18hlFGBmA+pdz+gg7f68hPrTQIUk1zD44tTkHnWqmVZ4pY0cQId6nYPYiG08xg/MFl3sv0gM3aIZMN3tRE/mMIowMHER8JoQwqOvCf68n2TDbELY6B51qJjH7Q4oHBdxmEQlgcoETMvk2LoD+tu1FYc433EXeDhXCGQBG7DAJ+MReJMLIK1oxvPJUyDKvdBFGic7JN+tK/5Zwh1amsqEs6qd0QCAfyA5Kj/vqhwXQ5z0ovFG3P9P27VTWSw4G3k0UPNqHm71otsgSEUYMujC8ck3IMl9gykSmgapJNswOe7Ikxx26LGA5cKU9mKyAlPkKTDYbUySMXi6AATuRwtmLgLaUPU5Xa70DC2M8dnMjj9pehBTShyY9wYgwihw9GV7pEKI8HMzm0gDd47McqMN/o+dk33AenHo34Q59jMJFmsXhw7updJ6gT/S2crc8ZKC99eTWrcAJKoJCSBv/AYWzF5GeuDkhcbJjd4/jCX8N+a5uIViishc1JCtNiz3h/KwXFCeKMCpIdKTwseOcuNFlV7Svh2ehJYC9dIPx7ETymdzvREcB2yi5nEK1qbQ3yFrypxvHJIGoynAFh56+L1k5POzypop2oqgRhb3I3nVz6tUL9XVE8YaquV7IeuZSfPYiRJ7AuSccPhyp332trmNnyBW1CKPcoCXDL0F5EAv3D5nyBnt4FotS2wkNB6iv1oLNDmawmrxHq//1gJ7zBRol1JlTjXo7+XgWidIQ5wixj5yGdNPDpLXMyUULW40xKYKyPmYG6nC9EoWgGhSy/DjtRR30Lgg7tyqO3wc66vlca0hEGBUODmf45eCAZZ3OlOU1I/EMzV9mWvJVFCDtyovGS9yWQEc2otL6yWd9Pv+0ngSONX6vabRlHAmKFfZip2cEZS1gBuvjit4gK+xPScjy3c4XhTVIY3cIDz+o382oJpcTr3YUYVQYKMcsYIJGz3mVyjroePGWvVjfP4S55sz27ensKFZDZgh57Db2jLETqxlbws/InwdSa/3cncw1M7fHIzInFyWwovtK80AUTi0PMIJih15QHRtB+XGdL5qg1SXNmGv3GXWlOYZjWiMwPG98w1MClHEBw3dXeniuql7orKCyqmQszrYYMiUrWroMglExdR5eep6jHuja/SZcWkSWcaw6c204Fc+ZJYE7LnTwQEkE5Q1yGSdjY5pU7FQVYey3B2iB6aZ1WE3RZQYVYZQb9DO+4QCfz+Obf22UMd7nmOAWMScYZc7zUqDpQWEbnaADPCfijoPX0UxHXTCcdvZZRn39jpNdrr9vtOe3Mi8XHeroFVtYo64TXRlhAa/NKhGUDS3ED0z5Yb3zBpN7fqKjjLpWpZwn0iqMoHr9hoJlIYbjwXKDD54g7w4zUL1tJN5r2YxvN9BLgfOpbABI2zMCKojLI+q0mkbDtwcQRES7Tgi38bDLe1Pm5aIDVmTrDT6YSuHd/LmEjVGptQa47LoeClnuYrJUlSUeJovBKeeLNKcdH2TMq7U8PFNibAxA03wIovrkrkGDkNtkbDqy5leCXt1pL5qlBy1We06D1l8ouJdGOb2VdG4FvyAr/FAQQODc76K+mBZyyyooLIAH9ld0nF6kvER8bqxf9MTcV++SgthD9zHKmxHwnTEJwGZaV4+B0eQelQM7L7hkH6qfqeCzLjg/XOAyWTjH40+UbhVd2oURBMgr5D3VA3hpnvH9B/tcsNXQizwuKGsPg4+f81Lg8Y4HcGjP6QtelUoHMIXEnax3JF6kJxwjuuvdiak7rB3DB9nbEKxQe1SX+Tq1GE78aXGvBDXekT7rtFMow4PJj1MEDptuoGiiXuzQi7kWIfquJwXQ54swymtgN+SM8QlbZiVm8dZNL3KcXm5RH3o2PU+7eHnoj7TLiYA7WwRJibhc3xiFb9IV3qN3H310I/HvzXqHtcV4ZqOi82L8GKab6hMyX6cab4ac1GETbeCzTlul3cfnc/0p+lBMzUP03UKjrK4ijFIB7N4fdWgHcMAZERBuVTSFrHOZzsUYPDgrR/wOdfXYsuv5mjxGarElWF8P27pBAVd3kNb9KP7QMSuMetvJfJ1q1NcLIBzobKsJKtymGeg4fV9n/bdf1AsoBDDgkT2zo66/RZb35KiVfrarbmfik4UIo4IBNF4P6h20c07EEZrpWmMV1ze/3ahztNcHISju9llZIy2YcOAPB+lwcnurlsZwRYU3G/Tp1wdYeQZFIyqray9HAoHAxAiKxzVdhFF+Aguh2jHsgDiU1wLPyV8Ni22AjaeyYVoEAkFplDCTxTEijAQRoQPlMCFfvkj+zVT6nFQ94QuBoAzMKM/FdPRBhFH8MDN2X1ZsHXC+0QGLXO6DlJY4dYJixmxjrFzB3APVOrwF26as7e0puvNbgrKAd+lOKh1Zh0sdAa3VurR2wlJjgJ3P3GO7sA8VnhHIZPH/ow/VmPtGUzojl+Csln0UYKCwQ+QYYszD3FknHPeBF9+yNHYA0kU4Dzki98sezH129OaGwjOCIsVAyn70wZ4s1qS0D84kyy2/grBD5Fhp8NepzD12SK0b0tgBvY0OmMLcg8OwW/UOSiAoVsyi7EcfuutrV0l3CXxgXyp7ppTzZsZRom3kLXNswa/2LsigdjhZeEZQxHCGi4E2YS/jOs6dIPMrjkVUku4S+EADD7vu0/S1O9LaCe2NTjDj3Z1B1gG/h4VfBEWOhylzbpnJWki1l64S+IQZdX6kcR32ShwpWMcsglID6Lid6aB7698Rxgi6YXh0rEhzBwgEHnE87bKvIs6kHYcSQZFtm+oI6SZBQEwl3nmhiRZC8NBsnPZOQPQFO+wFHBjmkBX0Ff+HjnIf4ROB4FdcTbs8yuCkgIR+iCGJ4Ks3SfcIQgCLmpdpV9xH5OJ6XS+ANpIV0qooUEMPpoV6J4RwRJ2EPwQCdvE2iSz3WuQXQyDNw6VbBBEAET6gkZqp52FsBmDXL2OD/B9EHntjNiSgOgAAAABJRU5ErkJggg==;" vertex="1" parent="yebw_X8hMPpWs7V2vMcK-23">
          <mxGeometry x="18.379999999999995" y="21.5" width="103.23" height="17" as="geometry" />
        </mxCell>
        <mxCell id="yebw_X8hMPpWs7V2vMcK-24" value="" style="group" connectable="0" vertex="1" parent="1">
          <mxGeometry x="524" y="509" width="140" height="60" as="geometry" />
        </mxCell>
        <mxCell id="yebw_X8hMPpWs7V2vMcK-5" value="" style="rounded=0;whiteSpace=wrap;html=1;" vertex="1" parent="yebw_X8hMPpWs7V2vMcK-24">
          <mxGeometry width="140" height="60" as="geometry" />
        </mxCell>
        <mxCell id="yebw_X8hMPpWs7V2vMcK-13" value="" style="shape=image;verticalLabelPosition=bottom;labelBackgroundColor=default;verticalAlign=top;aspect=fixed;imageAspect=0;image=data:image/png,iVBORw0KGgoAAAANSUhEUgAAAZ4AAABQCAYAAAAp6RN/AAAACXBIWXMAAA7EAAAOxAGVKw4bAAAUOklEQVR42u1dCfhV0xZfpfTPTAllSIY0quiRpMxTyjyWHl4iRJTee4ZX5ocGIp6pHiVFhd4j9cpYaTKlZ0wRESlDiKh3fs4+77/vuvvc/73nnrPPufes3/etr+/fPWcPa++z195rr4FIIBAIyh/bOTTeoRHCisDYxKGFDvVzqLqwQyAQCPzRxqHlDq1zqIuwoyg87NAGhyY7tJmwQyAQCLLRyaHvHVrvUHdhR9Go6dCzSvjMc2hrYYlAIBBUooNDa9Qi2TehbazvUGuHDnCohfp74wDlbOVQA0tt3tyh1xVf54vwEQgEAhfNHFqtFseRCWrXrg71d2iaQ9+o9nH6xaG5Dg1yaM88ytzCobcdmmRZYH6s2vuSQxUy5QQCQZqxo0PL1KL4asATRNg41KGpDv1mEDTfObTK5zf83xi10JuAS/6n1bPXWu5TS3LVmKh7rEPVZOoJBII0AncQM9Vi+JNDTWNuz14OzWDCBCeFoQ51VKcVD1i4tyVXRXidQ29q73yphBfHIO2ZjjH070Kt/gEy/QQCQRpxj7YQxnmvAyFyuUM/a+15x6GuBZwM8NzJDr2v3v+RCReUtV4TshUx9XOKasM6JTQFAoEgNThJW+Rfpvh8TWo7NIEy72wghGoELG8r7dS00qF6DjVx6Futjhdj5HtDctWFaMdnDm0jU1EgEKQBdR1aoRa/tQ7tEVM7oDp7hTJVZGGowGo5NEuVCaH2LmWq766Lmf+XaG0ZJdNRIBCkAWO1hW94TG2AZ/9LTOjsHmL5KOt7MlvCHRYz/3G3tlhrz1EyJQUCQTmjo7bg4a6jQUztGKW1A/cx7SKo4xYym19vmoBxOFdr0xJyVY4CgUBQdsDl9jxtwbs9pnb0ZsLgvIjqgR8QN7uelZCx2IgyVYBXyvQUCATliDO0hQ5qqG1jaAOEwRqtHbMpWp+WWUzw3Jyg8eiutQsOvGJoIBAIyu60s1Bb6OKKPP0YEwT7RVzfUFbf0QkaExhBrEzACVQgEAgiQVe2ALeNoQ3NqdKXZoMShFHjLK0++M5skbBxGaa17wc59QgEgnLCTMsLvgn3MOH3Zwt1Hq7VNy+B49Kc8eQKmaoCgaAc0JItbpfH0AY4hK5i7djXQr37avXdltDxmaO1cSm5hgcCgUBQ0hhOmeqmejG0oQNlmzbbSBHQQqvvuISOz6WML51lygoEglJGBTtpzIypHZcbBI+NSNgHUWXk6qTmwtmL8WW0TFuBQFDKOJ4tan+LqR33GQRPfQv1ekYVryd8nPRIBjA331SmrkAgKFU8zBb7djG1Y7xB8Bxkod6eqq47Ej5OIxhvTpapKxAIShGICaar2eCkWCOmtowzCB4bl/3XqbqOTPhYcXP3h2T6CgSCUsSBbDGbFGNbRhgED5wno7532Ztcs+2aCR8r8EH3cfokrIIRngJeup3IzXFeK0AZO6nJ1IbisUwRCASlg2vYQn91jG3pR+ZI0bKzr8QSxpvGQQvajFyHoIUGhiMi6xMO7Z/HcRnZAd/12TFg4JrLmAkEsQIqrFbkxkO7iNzUxmFRN7WWFAqeRrpLjPz5g4/g8fLjVJMpRBMZX3oFKQQ5Fj5TBXzo0GCHeiiCXb2XhQ5mfojRY8oAiIB6b6nn3lI7FoSAQDRXhPyeS5W2+RLdVCCwiwr1PU5WG8kNEdKMAtsGJ8QfWBkNY+QV2vNRjv5NJ9fXJ80CiJ9Q7y+0gP4O/aoEzyk+QmV3TTCB/sF+R1bAz8k1rTvHZ0Dglatn8DtN1gKBIHLUUlqI5RELG50+L7CNzdj73yRgUe+bRz8/Jdf0GpftaTMp7sx4UZAJ+N/VS1PJzf+dCyeQ2YRuS4c+ULuog3IMIs81MV/WBIEgUmBX/o5FgRP0LuQs9v4rCeAdHEYXFtBnpOWeota6lik4DTWk7KR1Ffm86NmMT6L8vHJxEvqSMjPR4Uj6oPr7fJ/3YKSw3jBQa2RdEAgiARa9qwybPZ2g2lpKrmr9+zx29vPzoGnkWmVVFNjeW1l9jySEjwhhszqg8P3CoTHkXlfULcM5hnvCX1mfm1b10j5KQi2iwi4C/8MqulZN7lw7lLt9BmaxrA8CQSQ79XE+39xL5N657mzYVGKXPkTt3Pl7b1C0wSAnUHIToLV36KsiT4BYoF9Qm/1aZTTXuPq2a66Ha6qJ9HM+EorhUR/Gdsrxzhifd/4ia0TqgDhP09Wmo9QJl/T1E8ZfLGr/MnxrULd1yLMMWJ0uM5RxUYTtfo3V1SdhfIXh1AwKRw25vKoFuoQwl/Wtf66Hr1APDQtQ0ZMGRr5dxTvdDe/MIjtB9wTJwo1k/74hSkrSAlnNZ2OIjd8mBZbVXG1M9XKWkNnwKAxwddYpCZ2/MPGeZlAxFUq/RSzIbYGbVN/p9yAm4ApyrUbqBKjoDQMTr83jvV7qqPk8uc5ZFSRII9qRXeuqKOkjpZ5KCgYa2nhvEcLiDkN5h0TQ7tqGetonfB7jeuIwct1E5hchfLqU+Pd8J+vT434P9lYPDA9QCU4oJv1vG1lPBQUClpBblzAlLSXx4ZRtSPAsFXcv08bwrQ+OoO07GurZs8TmcyO1uYaT/aoChA/8I/cq4e+Yb3ZeqUonFySbXjsyRyOoTgKBIE4hzk+R8KPZpshyobr7mpX7YgTtb2VYV3Ys4fGAsEeEl0GUfXdlokkl3NcBrC8L/Sboegqew/xKA9OeiLHTMJI4UFFaPYjhtHaZQ4fK+ptamAJanhRS2W+xcr+KoP2dDO3ftozGBwZcI8nftH09hZdWG2v8EQ41sdS3PpSHpTIkMcwUOwSsZDLZtXTJhe3J9ZT12jEyhQsOjvfendvrJEgj4PHPL7rDzNr5PCt7XQSbvKMM68pmZThWSHXg5y81JITy4bzv+VlCyPWw0KeelG2xFyqqG47dGyxKVo5xhg+iRkoWG0T6xqWmHm/rv7IGpxKTDN/kESGWv8BQftihYY4z1FGzTMerk8/J540iy8Wh4nPKjicXNbpRdqijUGHSwy6n+FRcn7K2vGehTnxwNkNhbK/q60iueSm8u+coIcvHQgRP+rCHYRFbTOHeuX5G2WqhsB1JT6JsZ8tyxkNkVrfVLHIu8DLvsdAXPna/hF3BpYaOjY5x8PQTz48h7/L88Iyqr7ulPr5A5jBDCCdytwie1GM4ReuUvbFaSPTyv4+gHyekTPC0JrO6bbsiyoR7yidaWR87tEMMgif0sZtoYNR5MQ4ebP9xv4S4ULtZqtPz5r7NUn0DlZAZogQ/jCg8R8DuInhSDeyOeRiXdeqUHBb2pcKdxYPgSIpX1daU7DuzLzH0uXGRZSLxJuLzwWXGlrk/V7X9EGbh1cgcq2jXlH3snnrv9gS0RQRPumFarMOO6NzLUMfjEfTlQEM9thbOvVV9vS2P378Nfd65BOfhn1gfVodZeEsDk5am8GMXwSNICm43fJMDQ67jAUMd/SLoi8lRtZ4lPl6t6jvD8vjdT+VhyXcRFZeHKScuMTDpARE8IngEsWGO4ZvsEHIdiw11tI6gL40N9exiiY9etH3bkRKGsP4uK9F52I/1Y1GYhT9hmBjdRPCI4CkCSDooIXOCAapv7g8CI4Aw7yla+Wg5oohSYgqZY8NNA/zCncQ6sh99ZSTr71MluiZeTdlpN0Kb5Cti3JGI4CkvwdOesv0NSjlIaBxxtnYgc9qDMDHIUMcNEQoAnijSRpBQ725pRQxjOJOS4YhfLLhl5cSwCm5mmIBBj4XVqbQD4ongKR43UHmlRegbAw+bGNoxIeQ6FhpOVA0j7BPf3J5mcbf+ruXxw2n5J8o0QS7V2HRcG3Z3WAVfZJjkYwOWdSEFC1CKUxeseJDLZSi5Fijbx8BkETzFA7r0ckoEt1MMPDQZ+4Q5J01m1KMi7hMPpnmFBT5Oo0qfF5s4k/X1mQBl1FZrAKKFw7H8dIon1cysqMZtvGESXhywLMQTgz61kDxAuHh8hSr9FLwwMfi3pwgeMS5IIeobvsmrQiz/n6zsHyM+7ZjWmSER1+fd73j928ji+PFkmoXmOOqshCXe/ZYqnXzhQLq/5bm4lPXlhLAGZ7VhkrcKUFarANK9pTqCIzQPQsbAeXJzqgzjAb3wsSJ4RPCkDPgueaicy0Iqe3fKjlYw0EKfrmN1jo+4vvYUrvNmvtiHjd3zBb4Poy6o5mY71NZwQl1F9tKxQxPF87O19DueIYIp9Kf56BSPNggdpMMN4lV8n3q/c57Pb6HUGRAy3JDhWa09r4rgEcGTQnDV1DUhlTuWlbuA7Hj1n8HqnR1xfX+leC73p1PmvVnzAoUW1l+YgHO1mi4AbrbUlwaMh2tNsgFJ3D5kx+eqTgsmB7IgwTi9XdQ8yj/A5t3qRHOQ4bdZbPBsmUKK4BEkBYPZ+N8VQpk8SjTUOLaMgbgR03cRf9dTWX1zLfTxbFbnoALehSoQBh9fUHaCv9qUaRU4zdKYHcP6M58/sIsayA1VPagBai1TGoQ5ARo4MYcQMQGRVnGfM8bn1KZbhHwhJx4RPCkENwCYF8Lu9QvKtLQ62mJ/qitBp/dpj4jqwq58jWFtOybC/rWhzDQmz1Nh90rnqPdM99oHUzjGX4WCZx/NCipwK5lNQZfkKNSLRv0mFZc3wmNYISG67yB/fSGPUWUzbawIHkGSMIMyA4QGNclFqJbXmNA5O4b+TGdz+tSI6jkgx3pYJ4L6sPFfqtXzboB6kAkWd90mtectrB99LI3Xo6zeHlUdKz2616fAuuQGBYW/DlLQfhPwCNxO7SwQ0TZfT+9qisELfH7nOuizRPCI4Ekp9qPM3Ey3BCgDESR0Z0bo6c+IqT/Xszl9U0T1/IWy44t5fkSz1foX5klnOWU6HTcssIymOdYdnJr0dAgwXLBl4r+IqggqYAp5gxSpO/sceb0UCJ5p3DXs3YPz/ChWqUEtJMqBFz7DFIywDmVeokEIbmrxwxDBI0ga9JAluHguJJZaE7Z4QNXWPsa+dGBz+tmI6nmOnRSRaPEQxT/83/tUfMieaurUqIc2wh1NgyK+9X0Mv3VmPLN1v4NTsm79uNj0kH6phYcRF2h3w3M4xt1vWFxhQTGfMi1O/CxdNlJHvbVKEu8doFPNfcq/jDH5wTzLww5mGLkmmsWQp6N9r8hycGo7VwSPIARgo3gXEx5VCZ9a5Orn9XsO+JbUi7kvNZh2BXc+YeflqcmEwQDtN2y0f9LWSRg4BUnOhjXvZfZ9jqPg0ac3Jn/rtydj0gBxgXennzDwTjHYtfdlggcX9idqwuUuyrY+244y86/PUMdI/feeSq3m5QbZLuTO8jAe+e7OTNG146bfqDhPYxE8Ah0D2KI5TH2f1bU1ADvmgZSZzhr3DV0S1I8JbF53DLn8dlrZTxvWubZKHaafiKaQm3emRQ5BWE99k89Rpp/OSoouoPIOlKlqXa3Wchu4I18t2EZqcq5kp59VlKnrzJXWGQvljWyn9APbQUCfeWkEO5V2lG3Wna9pNhLWTVaCtRj6RdtVFlMOLAOvlxOPIGQ0cugxyrT6xMIE69Rf2XcPNdbxZD8qc1U4naK95/HudyBctvZ5Bov3IDI7z/+s1Er4jmEMMZcJcj1F/S056ggD3BdphMVxeocJ1xpVvQCmHqsaPUKpfhBhFE6lm+RZ6RbqSOeprx5RE+SofBoQENynaEAMH4Xc8QhKAVDpnKpON/erb/RB9XdXcg0KkopN2Eb29ZDLn6qEQus8+XiBOsWszUOLAeGOtAAIKbZlxHzCpvsDVn9bS2O0E+VnpFYWH9J3bBdXP4Z2iOARCKLHI9q8Xh/yt44Nc6cA72HDDlXl2WrTe5NaB6C5gCr/UMsC/RD2/S+0WPeFMQk86+jJOvp0TO0QwSMQRA9u3Xa5sCQLYyi+9Bx69tu3ypnJr1LVEVBhsn2KCB6BoCwwl6JLclfqQMgc/R4P904mi0Tci4dtHt+crTsXliuTW7COwtHLZLgwmlxz5xoRtkUEj0BgB93Y/G4nLPk/+lDVWT89x9LnQq57MFuLa5crk4cyJg82PLO12gFMkROPQFAWgO/KYsoRByzFeIN9+6aI/14AzzCNsGpSZqbYa8qZyZ8wJpscqS5Wv50pgkcgKBvoptWwdNtGWPK7/6X+3cN9xaTlgT8UjLDCDJ9zrlYvHH3rlCuTt2JMfttHCsMJbglFnzckSYKnBxWfrkIgSDJgMjyboo/dVko4nn33w32EE3y1Rod82tFPoP3KmcmbU3bYCY6r1G82AhsmSfBcyXjzNeXvUCsQlAo6UWWuGZx66qWcHzxn0gXsdzgE414H992NQqz3AsoMdFqr3Bmtx4jjjkonquPkeEttSYLggfMudLrLKNuBDQ69e4gAEpQZHqTcd7xpAuJO/qzx4zR2QvTuxMO0Nqtg602XNDD6MKoM9wF1Gqzc4MiFeHKIiYSwFbYiVNsWPH+kyvTfq6iwWHA/qlMQ3p9DAkHpAsZDy7V5vXPK+TGIMn0aG6l10kt/E3bq6/5afaPTxOjjDDt8TEDEjbNpzheH4FmkTn1I9z2tAJqh3lsggkdQBkCoH0/lNjXlp3qo03DFwLOoYn0KO4FfY6qMyg/hXydtzMblFlJn91CTsG4MbUjSHY9AkDborhW9hB2/x4M7Rq2JOPFUhFw+BJyX3sHLWyQQwSMQpG7z6WVLxW5/N2FJpBhAKbFiE8EjEAhyARk8PbU7cn7VEpZEAiSz88LyIGirGCzFCG/C3yasEAhiQzOqzJUDF4vqwpJQgXscz2fnRRHu8cPTd/YWVggEsQL3Dd7lujiWhocKJWzAVwRn3lJYkoxjPjyHaworBIJECB8vadz5wo6igdA7kxQ/Z4vQEQgEAjOQSRR3r/D16yrsCAzc4YxSQucpyj8btUAgEKQSCKMzllynckEwwAkfSd1gvVbUndn/AH+5CGd+X4djAAAAAElFTkSuQmCC;" vertex="1" parent="yebw_X8hMPpWs7V2vMcK-24">
          <mxGeometry x="26.00999999999999" y="21.5" width="87.98" height="17" as="geometry" />
        </mxCell>
        <mxCell id="yebw_X8hMPpWs7V2vMcK-25" value="" style="group" connectable="0" vertex="1" parent="1">
          <mxGeometry x="714" y="509" width="60" height="60" as="geometry" />
        </mxCell>
        <mxCell id="yebw_X8hMPpWs7V2vMcK-6" value="" style="ellipse;whiteSpace=wrap;html=1;aspect=fixed;" vertex="1" parent="yebw_X8hMPpWs7V2vMcK-25">
          <mxGeometry width="60" height="60" as="geometry" />
        </mxCell>
        <mxCell id="yebw_X8hMPpWs7V2vMcK-9" value="" style="shape=image;verticalLabelPosition=bottom;labelBackgroundColor=default;verticalAlign=top;aspect=fixed;imageAspect=0;image=data:image/png,iVBORw0KGgoAAAANSUhEUgAAAHsAAAAwCAYAAAAxWAXQAAAACXBIWXMAAA7EAAAOxAGVKw4bAAAICUlEQVR42u1cCWxWRRBeilKgeIDcGGgNKoqpQgLKoXIGijRRQK3hKkdUiAlKBAXlkkNFKBpFQBRRiAISlFioCgiVG1QU5FBQixqsisot0EKdyT9/uh1237+7/d/f9s+b5EvT/+3M7tt5u3PsvCeEG9UDjARkA/YDDgO+ASwGPACoYiCjLslYBzgI2AdYA5gLSAdUFgGVKdUAZAHOAYoARwHrAWsBR+g3xCFAJw85jwKOUds8UvIGwE+SjO8B7YIpLxu6DrCbFPEpoDMgQbp+GWA44Dy1wb8ZTEYlwGy6vhPQXtFPE8BH1Oaspk1APtLttIpPAvpGaDtGWp2orFTp2jT6/X16ODg1AORK/IivgumPHaUA/iBltzZoXx1wXFLWdvo9DXCRtmuVohNp6y5S4MpADf5TEmAvbcltLfg+YcrqQHb8NOBaDU+mRtGImoEq/KdZNNkjLPnmM2X9SX+nevDM1Ch6Z6CG2NjpC4AvmSNmQnMVSsPdob4Hz3AFz4XAI48NraUJ7+TA+6FCcSsj8FQF5EjtfwXcG6jBf2pLE57ryK9ytIYa8iYDmjnsJgE50jukoEwH3pq0/XJlNwmmtfxRAoVOGFPXcOBPVyj6YDCt5TfcQu95hiP/dIWy5wXTWr5XtyttUSg7I5jS+CPMnp1jisasWb1gamJCQwC/i1AirIXfnXVRrOo9gQ5iQpjWLpTm/S2/O5ysUPYrgR5iQuPZvE/1u8ONCmUHiZHY0Bds3tP87KyaCB1pyh0WiuAQI1a+kjz3BcLnk8LOIjjEKCvqyuZ9q98dTlIo+6VADzGhaWzep/ndYa5C2T0DPcSEtrJ57+pnZ3hi9Z8ivq4V6MF3wpT2eWneMc+R5GeHHRSr+jtHWVjJgkedqT6NtbYIFU9G40HEkulkwDVlqOw0Nu8b/e5wokLZcx1lPR/l0AG90gGAVaK4fDmMM4DVgEGAyy1kNgIsIH45efSgw/haAl4WoWogXZoaI5opInTGwLGN3dNeTbsR0VK2Kr7u7yAHXwz4TYRO3JKioOTpknnBMBDr058i5Y6n/y+K4pM5kzq79vTQ4MngDJIlT/hoizG2YCHTQ5p2HYW+Ps8UedFQNJYaqc6vr3eQ1YN43yzlmHDS8qWxLKDVqKLugFOiuPS5t4fcVGq7W5QsnOzEbGZjw3HOY3M2yKNtHTI/MlLZ3KPtvknRDmsJErnABFruO2iFLSIb50XDFIo+I9xe39lMK/AGRyUnSGYgrDyTrbWfxIMVsLcq2iSSH4IHDQ3Ztdbs/h8xHC+v6Glmeb/dGP9mm4n6WKG4ZRH41kZpy0iXVqEL4cO1lGWR7jHkrUTbuJeT84TQH9cOZPf/jEGfDRnPURpHaeLrKaaMfTV7fb4HT3OyeYWM55DloK8WoZcD/zLYSXQ0i41hlCX/a4z/Lraq88kJUylkGePtZ2hqZJ5sh3vmtQNdTBmXaZS93YNnuWRrCiSeYxZPKbb7QJSuyOFhNuZtDmZkNJMhV+r0od+GaRzBM8xmm4Ri3F4/Hcv4OkejbJ1X3ZNt8ysY382WK+pFR0Xj+2EnWN+dHeQ8zmRskq4toIe5jsEWvtKwP26vW1uOt1tp4uvpigyYrg7tFsC/IlTbHS78b8qe8Fcj9IdP4WJqu0S4l0ItZOP+tpTxvcoUYQXIsxq+9Yyvj+EDKvP847ATcXs92Ya5MXVaRPazjaZdb2qHDsVt7FovyX4XamxXJWr3g7SiXV+8byrFyWGMcZT1HpPziwFPMgt90HxVc7DXK6Jgr613szvoJoto5aJNfo6cnSwKPfDaPnLOVNSVxbgbABPIJs2T5Oc7ZpxkGqfYjVIcZfFt1eRV4QmM5w3DvvjrUY9FwV5Xd7npGhRrb6KYk+e70bZVNZCBD8gu9uQXkMOH8q+IQkJnHxvfLkc5VykSQ4sM+A54ePA2fLbnAN0Zf66IEtWibJhrxUkSJUmSDR4SG6qjcCbnOMrqJezLn5ux9ocNIxBur/928Fe4fzFJxDm1UyhoiKOsd5mcUwZhDA/V5hv2leHovcvEz687xruy0xTKbuUgp4rkmIbxtgFfNuMx9T/mML4nS2mvzxo6hXG3shs5yBksLs3rm7yEeITx1Tfsb79BfL3Cw9nj9WYbDMxGHuC+iqzsFIWybY9F8dsuB5mMcQZ8lVnId9qwv/qM76S49PsytSls1dUD8Fq/iYZJq+YVfXUfZjfewJJ/qMKrNflgXzXGd8Cwv/6M7zOPNvdrZORY2OsUCsvWxMNWnsVu/G4L3hYstMSMmU15kfxFqN0G7bESZg8b7wuKdktpXLrXpX9meQXdbpZAD0aBIvlVIakBU1iWRbYwT5R8f9y22OJzUTLdGSnsmq0wO4MVWzhW1iz2kJPH+o2UcIqrsGwIc65ujND+ThH6rpvs4LgUDGYK8/LdsaL4pQmZJ1OjoJYespYa+AoDye6vEupvzlVoGis5PpiO7aBo05Q83POSczTG0Ebrtkl5deOHevmrycmi+DQQY3k8F98s8SyR2rahh3V5hH5biZL1A/LXpGqSQ4ZzsU74XFJcltSDhTV7aRUspCREeIKOUwKkURT6TCKFhfs8QcrFOB3TzRcoQTNS2ubr0rUwzxriwYcQ09EmJc4DRHEhJW7l+A2c1bTSUc6MeFzRqpAIy5tepxX0Izk0O0gBfXxKQGCsjJUyW6g/dPawXGuUUFfeVCGvO4f8BVQyHlnaHGbgToUlyLsoKvmafJZkHcP/ExWtDv3EwPIAAAAASUVORK5CYII=;" vertex="1" parent="yebw_X8hMPpWs7V2vMcK-25">
          <mxGeometry x="10.769999999999982" y="22.5" width="38.45" height="15" as="geometry" />
        </mxCell>
        <mxCell id="yebw_X8hMPpWs7V2vMcK-26" value="" style="group" connectable="0" vertex="1" parent="1">
          <mxGeometry x="204" y="599" width="60" height="60" as="geometry" />
        </mxCell>
        <mxCell id="yebw_X8hMPpWs7V2vMcK-14" value="" style="ellipse;whiteSpace=wrap;html=1;aspect=fixed;" vertex="1" parent="yebw_X8hMPpWs7V2vMcK-26">
          <mxGeometry width="60" height="60" as="geometry" />
        </mxCell>
        <mxCell id="yebw_X8hMPpWs7V2vMcK-15" value="" style="shape=image;verticalLabelPosition=bottom;labelBackgroundColor=default;verticalAlign=top;aspect=fixed;imageAspect=0;image=data:image/png,iVBORw0KGgoAAAANSUhEUgAAAEsAAABFCAYAAAACRBuaAAAACXBIWXMAAA7EAAAOxAGVKw4bAAAFJklEQVR42u2cZ2gUQRTHxxZ7b1iixCiKkgiCGuwQKzbEhiLGrkjsJfaCLRYssSHqBxsWxCg2UBE1xmiIXTBiwfLBgmLvJc5z33HjuG9v73b35HbnwR+S2723M7/dffvmzewxFhkWzXWd6xtXX6bM0E5y5aF2KBy09RFAgc4oJPpWjOuhBOuOwqJvqRIo0HuF5V+rw/VFBxaohMLztx0jQOUhSGVoPQ1AgVopRP6g/igALJVroS1EIJBbPSFgjVeYGIvl+sz1lase1yUC1lKFirEjCGMJ/p9OwNrudVDdEcQTITVYT8A66WVQRbkeIIjewuezCFi3vAxrPkI4JX0+hID1yqugamFQ/84VJ23rSMD6xVXEi7AOI4BlOtviDXKtml4D1QE7/pSrlM72igawErwEqjCWW4wy8nwGg+keXoI1Bzt9DqFQ9pCANdoroGpwfSCCumwXCFgLvALLl5mvMLHvfgLWFi+AaicE9dIm9k8jYB11O6gorlzsbH+T35lOwLridlgzsKMZAYK6aEkErKduBhUtBPX4EG5bWT+5CroVli9Qrwzyew0MEtMqbgTVFjv3zGRQF62sAaxGbgzqt7FzA0L08YmA1dltsFJCCOqy3SdgDXMTqGpMm0H+wdXQgp8MAtZsN8Hag51abdHPXgLWBreAasm0Ih0E9TIWfa0iYKW7ARTkPzewQwNt8DeVgHXJwT7U5hrLtPJRfidhTcLOZFoI6qINIGA9dqj9MNP0WThOqlOgIFF8hwdZyzXCBq0hYH216WSIlg9Dh3icbKdg7WLG6xTsVgWb26+XBKc5AaoVBvVPmBvZKQpWnAP9EJc7ZYYw6jAV1K/hAUY60AEqi2/v0AMKBvDNnQru44T724kDUCtqkiItVajM9RrLJk0dOkY2AWtapMHahg3f6OAxDhCw1kQSqGYY1F868GQSjUof9kUKqAJcV7HRQx0+1hQCVkakwEp2OKiL1o+AdS8SQJXHWw+CeuMwHK8FAeujRb8xONLI4rrItPlI2x9SW7Gx68J0cmINEtNSIfqcwLS1FG+YtprnOvMvabLtKZuAV9RzG8ovZq2EAay6IfibxvzrU30ZenEp+U202mioqd9EZ6PCfOt/IGC1CdJPGzzZO3UG4mLyu9dqgxeho1wW/nk7aozYL8ihDLT9Efv3HaAoqTSTY6WxXfGM5OHwJtyWRcCaGIQP3zrVwUQhQPS7O9SGJkr3c4f/AOswAWtVED5yMNZG6WxbziyuAYP8aQwW2kRHY8IMClYKPiBgHTfpoxrzFyVlK8S09RM+n99xzGu6CJYkZOiyoBrajdlfqdQbJcCQ6rTB0xBOZBcTvuIwVunNZMtvoh0ycgSdhpeM4O2Fu0JsCiQ4Gye4etkEB2pI6diOa1LADaQX+J2z2Nm1QYwsjku+uhvtHM2slXc32wRrH7Ov5AyTu2bWy1fHfX3fe4a3peGVBeunoN6ciprJtOl3GMSOxb9B84R90jDAxtgEKxGviFS80lPwyStPYiQL7UnBlMbXJlipsymIlGKeBHk5U0Y+wOSXQesrLPrWSQKVpZDQJq+GHq6Q6FslKX/8SFQwYISw2OuwJktX1TadfaAS8ZbroNdh3ZBgtdbZZ5C6Pf1DH7E8rTcaOc+04mBJL8NKkGDpTeO1x21zvX4L1gxQ5inHtDfS7jH12zd/LFOAJV498NbaZXw6NlGYNKuHtS3fS+pL8IkIi4ZhOYL6zRvJqjLt9yNgyAO/KQirCWH2u6K8428JXMQgKjYfoAAAAABJRU5ErkJggg==;" vertex="1" parent="yebw_X8hMPpWs7V2vMcK-26">
          <mxGeometry x="20.75999999999999" y="21.5" width="18.48" height="17" as="geometry" />
        </mxCell>
        <mxCell id="yebw_X8hMPpWs7V2vMcK-27" value="" style="group" connectable="0" vertex="1" parent="1">
          <mxGeometry x="384" y="599" width="60" height="60" as="geometry" />
        </mxCell>
        <mxCell id="yebw_X8hMPpWs7V2vMcK-19" value="" style="ellipse;whiteSpace=wrap;html=1;aspect=fixed;" vertex="1" parent="yebw_X8hMPpWs7V2vMcK-27">
          <mxGeometry width="60" height="60" as="geometry" />
        </mxCell>
        <mxCell id="yebw_X8hMPpWs7V2vMcK-17" value="" style="shape=image;verticalLabelPosition=bottom;labelBackgroundColor=default;verticalAlign=top;aspect=fixed;imageAspect=0;image=data:image/png,iVBORw0KGgoAAAANSUhEUgAAADIAAABECAYAAADDRGZtAAAACXBIWXMAAA7EAAAOxAGVKw4bAAAEg0lEQVRo3t1bWWxNQRge2tJaItZqayco8VAJD5VQW4kHYi+JJfEgGvFCkWjpQkMiRFuURkJE0koIYksI0VbxIraiJaqxbxVLiir1T/rT6fSf3plzeq57zp98aXvvmW/ud+f8M/N/c8pY8xEEiAaMByQAVgJSATmAY4AiQBngIyCDBWgE44es08TOQBXSBVBrIGQuC+CIAsQC4gHzAdsAnwgRvwE9mMsijRByj7kw8gghOW4UctNt+UFFR8BPL+THVGI07rrxtsr0Sn6UEELmuE1EB0CNF/JjCjEad7ySH1leyY/ZXsmPbm4TEu/l/NjllfyY5TYR7QA/vJoft4nr2gPmAfYCTiP2AxIDZdHc4iM/uIB0QBW+x0fvCeCNcD3fMR/A8vm/xVVCyEx8bwygEl+7CJgOaCu05Q7MWaHda0DM/xDRnsiPX4CugCT8pp8DpjXD0RpwUmj/HjDC30ImK9aPLPy9GEX5inBAtVTDtPGnkM2EkO/48wwgzIDroMST7E8hxYz2sIoMRTCc0USON1I++XX9qMPk7m6BbwjBtcAfQiYx2oiLs2FcyHwH/SEkg+j4qA2+EIKv3B9CioiOF9rgi1SMsKOzV5gwO4mItME5WjFxRDgpZCLR4X2bnDMUQoZb4OKG+nnACV/t04kOd9sUslohZIghz0qNDey/KHTAv8pXCDG9XSuJ9YiMUMA3B+qPCkJEDc5mJvFe18mZoFl/mER3xWg8tMC1BPAVv+zc5nYY1EGOXX93mkJIgUW+YJ2RvEJ0mGBTyHaFkESnpt0QIj84+trkLVUIGeyUkEFEZ89tcvZRiLjl5EJIGdX5NjlXKISsc1LIIqLDVTY5TxOc1U7bScuITuNt8IWzpp5xHVpGVmYq7VhIdDrUhpAkgo9PJr0MPINC1nAAyx8p2aBTWVKHnVE2hDwg+DI12nHnZY9gVKQJf2uV2qOIjq26hOMIrseatX4OXp+Kov6G+JBPiq86Xb6n+1sUclni4Q/ojNVoNxOv30G8d0PgK/VFdF36ACMtiJhFjMYmjXahuLstI/KAj8w7ge+DL7KN0gdYZCiC+7sviFq/tUbbxGZK6hiJ87LOlCmWubkGIoKwchM7vIjftE5wF/OVYqqVi70UZpBsHFWaCdqKNX1y6JyBkdcb22QrvqBnUn00QIeUm9ePhIZbNO7tQ5KIbMOiia8tFxQ1uFwGFJrc65zwJWtw4FcorovFDeDfTt6hPdqScVwSstSUYKA05ZXgas2rtGTW+GyR59Uui3aqyTbnC6s/LjcOPtssxlmilqi5rwHWAHo6tP9bL/WZ1xKk3L8dxupPqqJxAXUy+ARSLgmJZS6MOElEGYpzXRyWhKx1o4jOrPFxHd/KUz7xcsClQBYiW6OnFBNRRQv4bo7GDUYficuFF39vc6CK6ITbENHfpXYJBXjL9QtUIdHSaBxT7IZrW2pdcXJExAeltxJ7Qb5TfuvgQuzI/mqf8HoE1uw16DEEfEQIO3DuvPCDpiOAz6zejZ/uprWE32IZ6KTwf396ioKaHA79AaMtb/12TmilAAAAAElFTkSuQmCC;" vertex="1" parent="yebw_X8hMPpWs7V2vMcK-27">
          <mxGeometry x="23.75" y="21.5" width="12.5" height="17" as="geometry" />
        </mxCell>
        <mxCell id="yebw_X8hMPpWs7V2vMcK-30" value="" style="endArrow=classic;html=1;rounded=0;entryX=0;entryY=0.5;entryDx=0;entryDy=0;dashed=1;" edge="1" parent="1" target="yebw_X8hMPpWs7V2vMcK-3">
          <mxGeometry width="50" height="50" relative="1" as="geometry">
            <mxPoint x="144" y="539" as="sourcePoint" />
            <mxPoint x="194" y="489" as="targetPoint" />
          </mxGeometry>
        </mxCell>
        <mxCell id="yebw_X8hMPpWs7V2vMcK-31" style="edgeStyle=orthogonalEdgeStyle;rounded=0;orthogonalLoop=1;jettySize=auto;html=1;exitX=1;exitY=0.5;exitDx=0;exitDy=0;dashed=1;" edge="1" parent="1">
          <mxGeometry relative="1" as="geometry">
            <mxPoint x="684" y="538.9428571428571" as="targetPoint" />
            <mxPoint x="664" y="538.8" as="sourcePoint" />
          </mxGeometry>
        </mxCell>
        <mxCell id="yebw_X8hMPpWs7V2vMcK-32" value="" style="endArrow=classic;html=1;rounded=0;entryX=0;entryY=0.5;entryDx=0;entryDy=0;dashed=1;" edge="1" parent="1">
          <mxGeometry width="50" height="50" relative="1" as="geometry">
            <mxPoint x="694" y="538.8" as="sourcePoint" />
            <mxPoint x="714" y="538.8" as="targetPoint" />
          </mxGeometry>
        </mxCell>
        <mxCell id="yebw_X8hMPpWs7V2vMcK-33" style="edgeStyle=orthogonalEdgeStyle;rounded=0;orthogonalLoop=1;jettySize=auto;html=1;entryX=0;entryY=0.5;entryDx=0;entryDy=0;" edge="1" parent="1" source="yebw_X8hMPpWs7V2vMcK-3" target="yebw_X8hMPpWs7V2vMcK-4">
          <mxGeometry relative="1" as="geometry" />
        </mxCell>
        <mxCell id="yebw_X8hMPpWs7V2vMcK-34" style="edgeStyle=orthogonalEdgeStyle;rounded=0;orthogonalLoop=1;jettySize=auto;html=1;entryX=-0.017;entryY=0.493;entryDx=0;entryDy=0;entryPerimeter=0;" edge="1" parent="1" source="yebw_X8hMPpWs7V2vMcK-4" target="yebw_X8hMPpWs7V2vMcK-5">
          <mxGeometry relative="1" as="geometry" />
        </mxCell>
        <mxCell id="yebw_X8hMPpWs7V2vMcK-36" style="edgeStyle=orthogonalEdgeStyle;rounded=0;orthogonalLoop=1;jettySize=auto;html=1;entryX=0.5;entryY=1;entryDx=0;entryDy=0;" edge="1" parent="1" source="yebw_X8hMPpWs7V2vMcK-14" target="yebw_X8hMPpWs7V2vMcK-3">
          <mxGeometry relative="1" as="geometry" />
        </mxCell>
        <mxCell id="yebw_X8hMPpWs7V2vMcK-38" style="edgeStyle=orthogonalEdgeStyle;rounded=0;orthogonalLoop=1;jettySize=auto;html=1;entryX=0.497;entryY=1.06;entryDx=0;entryDy=0;entryPerimeter=0;" edge="1" parent="1" source="yebw_X8hMPpWs7V2vMcK-19" target="yebw_X8hMPpWs7V2vMcK-4">
          <mxGeometry relative="1" as="geometry" />
        </mxCell>
      </root>
    </mxGraphModel>
  </diagram>
</mxfile>
